<?xml version="1.0" encoding="utf-8"?>
<!-- Generator: Adobe Illustrator 24.1.3, SVG Export Plug-In . SVG Version: 6.00 Build 0)  -->
<svg version="1.1" id="Layer_1" xmlns="http://www.w3.org/2000/svg" xmlns:xlink="http://www.w3.org/1999/xlink" x="0px" y="0px"
	 viewBox="0 0 40 40" style="enable-background:new 0 0 40 40;" xml:space="preserve">
<style type="text/css">
	.st0{fill:#003B49;}
	.st1{fill:#2DCCD3;}
	.st2{fill:#B1E4E3;}
	.st3{fill:#FFFFFF;}
</style>
<g>
	<ellipse transform="matrix(0.0985 -0.9951 0.9951 0.0985 -1.8734 37.9319)" class="st0" cx="20" cy="20" rx="17.55" ry="17.55"/>
	<path class="st1" d="M20,8.52c-3.03,0-11.14,12.73-11.14,20.15c0,0.4,0.02,0.8,0.04,1.19c2.72,3.06,6.69,4.99,11.09,4.99
		s8.37-1.93,11.09-4.99c0.03-0.39,0.04-0.79,0.04-1.19C31.14,21.25,23.03,8.52,20,8.52z"/>
	<path class="st2" d="M20,8.52c-0.01,0-0.03,0-0.04,0v26.33c0.01,0,0.03,0,0.04,0c4.41,0,8.37-1.93,11.09-4.99
		c0.03-0.39,0.04-0.79,0.04-1.19C31.14,21.25,23.03,8.52,20,8.52z"/>
	<path class="st3" d="M20,15.23c-5.59,0-10.13,6.2-10.13,13.85c0,0.63,0.03,1.24,0.09,1.85c2.64,2.43,6.17,3.91,10.04,3.91
		c3.87,0,7.39-1.49,10.04-3.91c0.06-0.6,0.09-1.22,0.09-1.85C30.13,21.44,25.59,15.23,20,15.23z"/>
	<path class="st0" d="M20,22.79c3.69,0,6.8,3.19,7.78,7.56c0.21-0.93,0.32-1.92,0.32-2.94c0-5.8-3.63-10.5-8.1-10.5
		c-4.47,0-8.1,4.7-8.1,10.5c0,1.02,0.11,2.01,0.32,2.94C13.2,25.98,16.31,22.79,20,22.79"/>
</g>
</svg>
